<svg width="40" height="40" viewBox="0 0 40 40" fill="none" xmlns="http://www.w3.org/2000/svg">
<rect width="40" height="40" rx="20" fill="#0A99EA"/>
<path fill-rule="evenodd" clip-rule="evenodd" d="M22.724 9.16131C22.8765 9.2462 22.9962 9.37973 23.064 9.54059C23.1317 9.70144 23.1437 9.88037 23.0979 10.0488L21.0229 17.6561H28.5938C28.746 17.6561 28.8949 17.7006 29.0222 17.7841C29.1495 17.8676 29.2497 17.9865 29.3103 18.1262C29.371 18.2658 29.3895 18.4202 29.3636 18.5702C29.3377 18.7202 29.2685 18.8594 29.1646 18.9707L18.2271 30.6894C18.108 30.8174 17.9494 30.9016 17.7767 30.9288C17.604 30.9559 17.4272 30.9244 17.2746 30.8392C17.122 30.754 17.0023 30.6201 16.9348 30.4588C16.8673 30.2976 16.8558 30.1184 16.9021 29.9499L18.9771 22.3436H11.4063C11.254 22.3436 11.1051 22.2991 10.9778 22.2156C10.8505 22.1321 10.7503 22.0132 10.6897 21.8735C10.6291 21.7339 10.6105 21.5795 10.6364 21.4295C10.6623 21.2795 10.7315 21.1403 10.8354 21.029L21.7729 9.31027C21.8921 9.18282 22.0504 9.09891 22.2228 9.07191C22.3951 9.04492 22.5716 9.07639 22.724 9.16131Z" fill="white"/>
</svg>
