<svg width="40" height="40" viewBox="0 0 40 40" fill="none" xmlns="http://www.w3.org/2000/svg">
<rect width="40" height="40" rx="20" fill="#0A99EA"/>
<path d="M11.0156 12.1875C9.93646 12.1875 9.0625 13.0625 9.0625 14.1406V21.5625H21.5625V14.1406C21.5625 13.0615 20.6875 12.1875 19.6094 12.1875H11.0156ZM21.5625 23.125H9.0625V25.8594C9.0625 26.9375 9.9375 27.8125 11.0156 27.8125H11.4062C11.4062 26.9837 11.7355 26.1888 12.3215 25.6028C12.9076 25.0167 13.7024 24.6875 14.5312 24.6875C15.3601 24.6875 16.1549 25.0167 16.741 25.6028C17.327 26.1888 17.6562 26.9837 17.6562 27.8125H20.7812C20.9885 27.8125 21.1872 27.7302 21.3337 27.5837C21.4802 27.4372 21.5625 27.2385 21.5625 27.0312V23.125Z" fill="white"/>
<path d="M16.0938 27.8125C16.0937 27.3981 15.9291 27.0007 15.6361 26.7077C15.3431 26.4146 14.9457 26.25 14.5312 26.25C14.1168 26.25 13.7194 26.4146 13.4264 26.7077C13.1334 27.0007 12.9688 27.3981 12.9688 27.8125C12.9688 28.2269 13.1334 28.6243 13.4264 28.9174C13.7194 29.2104 14.1168 29.375 14.5312 29.375C14.9457 29.375 15.3431 29.2104 15.6361 28.9174C15.9291 28.6243 16.0937 28.2269 16.0938 27.8125ZM23.9062 14.5313C23.699 14.5313 23.5003 14.6136 23.3538 14.7601C23.2073 14.9066 23.125 15.1053 23.125 15.3125V27.0313C23.125 27.1219 23.1406 27.2083 23.1687 27.2896C23.2986 26.52 23.7117 25.8268 24.3269 25.3464C24.942 24.866 25.7147 24.6333 26.4928 24.6939C27.271 24.7545 27.9983 25.1041 28.5317 25.6739C29.0651 26.2437 29.3659 26.9925 29.375 27.7729C30.2635 27.5906 30.9604 26.799 30.9 25.8115C30.667 21.9973 29.3148 18.3364 27.0125 15.2865C26.8332 15.0506 26.6015 14.8597 26.3358 14.7286C26.0701 14.5976 25.7775 14.53 25.4812 14.5313H23.9062Z" fill="white"/>
<path d="M27.8125 27.8125C27.8125 27.3981 27.6479 27.0007 27.3549 26.7076C27.0618 26.4146 26.6644 26.25 26.25 26.25C25.8356 26.25 25.4382 26.4146 25.1451 26.7076C24.8521 27.0007 24.6875 27.3981 24.6875 27.8125C24.6875 28.2269 24.8521 28.6243 25.1451 28.9174C25.4382 29.2104 25.8356 29.375 26.25 29.375C26.6644 29.375 27.0618 29.2104 27.3549 28.9174C27.6479 28.6243 27.8125 28.2269 27.8125 27.8125Z" fill="white"/>
</svg>
